PathFileType	4	(X/Y/Z)	../Python\running\Running01\task.trc
DataRate	CameraRate	NumFrames	NumMarkers	Units	OrigDataRate	OrigDataStartFrame	OrigNumFrames
200.000000	200.000000	4	30	mm	200.000000	84	169
Frame#	Time	C7			RBAK			CLAV			STRN			RASI			LASI			RTH2			RTH3			RTB2			RHEE			RD5M			RTOE			LTH2			LTH3			LTB2			LTB3			LHEE			LTOE			LD5M			RPSI			RTH1			RTB1			RTB3			LPSI			PE03			T10			PE01			PE02			LTH1			LTB1			
		X1	Y1	Z1	X2	Y2	Z2	X3	Y3	Z3	X4	Y4	Z4	X5	Y5	Z5	X6	Y6	Z6	X7	Y7	Z7	X8	Y8	Z8	X9	Y9	Z9	X10	Y10	Z10	X11	Y11	Z11	X12	Y12	Z12	X13	Y13	Z13	X14	Y14	Z14	X15	Y15	Z15	X16	Y16	Z16	X17	Y17	Z17	X18	Y18	Z18	X19	Y19	Z19	X20	Y20	Z20	X21	Y21	Z21	X22	Y22	Z22	X23	Y23	Z23	X24	Y24	Z24	X25	Y25	Z25	X26	Y26	Z26	X27	Y27	Z27	X28	Y28	Z28	X29	Y29	Z29	X30	Y30	Z30	

85	0.42	34.89207458496095	1376.00830078125	144.6326293945313	-44.21833419799806	1289.7001953125	216.1423645019532	141.9225158691407	1282.16259765625	178.2836456298829	180.4691467285157	1099.367553710938	168.6854095458985	126.6867904663087	894.3927612304692	249.9392089843751	110.1435089111329	877.0241088867192	29.12952041625978	199.3958587646486	558.7425537109377	270.6697692871095	198.4251861572267	618.7622070312502	286.0349121093751	251.612518310547	302.5509338378907	253.0261230468751	278.9023437500001	102.9605331420899	149.3242950439454	419.1758117675784	51.18930435180667	218.1169738769532	454.2800903320315	77.55957794189456	183.0198822021485	-95.11382293701175	593.2803344726565	30.67520713806154	-15.77327537536622	597.6054687500002	14.70833969116212	-345.0943298339845	415.9185791015627	96.42085266113287	-302.6589965820314	391.3434143066409	86.76239776611331	-498.9607238769534	368.3847045898439	184.8475494384766	-455.2056884765627	197.6819458007814	137.4371337890626	-483.2959899902346	232.8360290527345	104.5434494018555	-63.32412338256839	960.4666137695317	208.5350189208986	148.0690002441407	615.2879638671877	293.6937561035157	280.9324951171876	356.5093383789064	257.4985961914064	296.0388488769532	279.8047790527345	245.7133331298829	-68.3012390136719	962.7114257812505	121.7022857666016	-83.55407714843753	940.9757690429692	140.0570220947266	-37.48406982421876	1092.50048828125	132.4277801513672	-49.27070999145511	995.181030273438	162.8931427001954	-78.72598266601565	941.787963867188	190.6990203857422	-51.63337707519534	633.7510986328127	11.88286972045899	-274.138397216797	445.1645202636721	73.7421569824219	
86	0.425	51.83982849121097	1373.354858398438	145.5548553466797	-27.41037750244142	1285.873046875	217.3057098388673	159.0934143066407	1279.54736328125	178.5123291015626	197.8350524902345	1096.304809570313	168.5562744140626	143.7857208251954	891.9863281250005	250.9615020751954	128.4039459228516	875.056274414063	29.59777069091798	217.1199188232423	557.3865966796877	270.7901306152345	216.1062011718751	617.3830566406252	286.1655883789064	263.3727111816407	298.7779846191407	251.9069213867189	285.0715637207032	98.92504882812506	147.4127349853516	424.6581726074221	44.3615074157715	215.4358062744142	460.1643371582034	69.45051574707034	179.5680236816407	-73.82313537597659	589.1419677734377	29.94630813598634	5.336915493011476	594.5087890625002	13.28471851348878	-322.8003845214845	417.4160766601565	96.30948638916021	-281.117401123047	391.8703918457034	86.06836700439456	-477.945251464844	372.6090393066407	185.9132690429688	-435.4890747070315	202.4985961914064	134.5537567138672	-463.421569824219	238.7281341552736	102.6673202514649	-46.32556533813478	956.4802246093755	208.0814971923829	165.6507415771485	613.8969726562502	293.5481872558595	294.1720581054689	351.8838806152345	256.6245727539064	307.1760864257814	274.9517517089845	244.1583557128907	-51.18556594848636	958.9498901367192	121.5158615112305	-66.38913726806643	937.139526367188	139.5684661865235	-20.32976341247559	1089.865234375	132.1605377197266	-32.25842666625978	991.306030273438	162.7607116699219	-61.76712036132815	937.766723632813	190.2405700683594	-31.0010166168213	630.1228027343752	11.00768375396729	-251.2417755126954	445.0715332031252	73.33541107177737	
87	0.43	68.74945831298831	1370.47314453125	146.531234741211	-10.59008884429932	1281.795532226563	218.5330657958986	176.2985534667969	1276.654541015625	178.7307434082032	215.2479705810548	1092.952758789063	168.3870849609376	160.8671417236329	889.3806762695317	251.9956665039064	146.5984344482422	872.7789916992192	30.09298706054689	234.3543243408204	555.5969848632815	271.1234130859376	233.5063476562501	615.5857543945315	286.4863891601564	274.6380004882814	294.7210083007814	250.9232330322267	290.1551513671876	94.403923034668	145.8035888671876	429.3476867675784	37.79065704345705	212.9587249755861	465.2017517089846	61.53152847290042	175.8789520263672	-52.42879486083987	584.702331542969	29.26250457763673	26.45574188232423	591.1619262695315	11.73048305511475	-300.0213012695314	418.3155212402346	95.98731994628909	-259.0682983398439	391.8728027343752	85.21407318115237	-456.3540344238284	376.176727294922	186.7267608642579	-414.9836425781252	206.7731323242189	131.617904663086	-442.7446899414065	243.9956054687501	100.6638793945313	-29.3454933166504	952.264038085938	207.5642700195314	182.9354095458985	612.2949218750002	293.4103393554689	306.970184326172	346.8510742187501	255.7724761962892	317.6823730468751	269.7383117675782	242.6376190185548	-34.10861587524415	954.8956909179692	121.2863464355469	-49.25763320922854	933.0005493164067	139.0735321044922	-3.15682363510132	1086.960205078125	131.8962707519532	-15.28518962860108	987.158081054688	162.5299377441407	-44.82210540771486	933.5100708007817	189.765121459961	-10.3658094406128	626.2304687500002	10.10171413421631	-227.9383544921876	444.4526062011721	72.71109008789065	
88	0.435	85.62355041503909	1367.376342773438	147.5602722167969	6.246324062347416	1277.484985351563	219.8250732421876	193.5395812988282	1273.483520507813	178.9383239746094	232.7077789306642	1089.326171875	168.1729431152344	177.9249572753907	886.5927124023442	253.0296325683595	164.7115478515626	870.191528320313	30.61333465576173	251.046356201172	553.3013916015627	271.655242919922	250.5697479248048	613.3037719726565	286.9604797363282	285.4191284179689	290.4224548339845	250.0698547363282	294.1530761718751	89.39094543457034	144.5193939208985	433.3154907226565	31.71749114990236	210.7628936767579	469.4587402343752	54.09024047851565	172.0498352050782	-30.92380142211915	579.9526367187502	28.61721992492677	47.58396148681642	587.547790527344	10.06715774536133	-276.7720642089845	418.6095275878909	95.42562103271487	-236.514617919922	391.3384704589846	84.18360137939456	-434.2136535644534	379.0813598632814	187.2422790527344	-393.7010498046877	210.4662322998048	128.671615600586	-421.2814941406252	248.5746459960939	98.55561828613287	-12.3913106918335	947.8703002929692	206.9932250976564	199.8820648193361	610.3982543945315	293.3301391601564	319.3131713867189	341.4571838378907	254.9064331054689	327.5540771484376	264.221649169922	241.1362915039064	-17.0678939819336	950.5788574218755	121.0037994384766	-32.15848922729494	928.5930786132817	138.5699157714844	14.03510189056397	1083.792724609375	131.647201538086	1.628915429115296	982.7848510742192	162.1939086914063	-27.8992214202881	929.0617065429692	189.2711944580079	10.28649806976319	622.063903808594	9.17307281494141	-204.234344482422	443.3043518066409	71.85025024414065	
